<?xml version="1.0" encoding="UTF-8" standalone="no"?>
<svg
   xmlns:dc="http://purl.org/dc/elements/1.1/"
   xmlns:cc="http://creativecommons.org/ns#"
   xmlns:rdf="http://www.w3.org/1999/02/22-rdf-syntax-ns#"
   xmlns:svg="http://www.w3.org/2000/svg"
   xmlns="http://www.w3.org/2000/svg"
   width="48.295563mm"
   height="20.069799mm"
   viewBox="0 0 66.548395 27.654983"
   version="1.1"
   id="svg8">
  <defs
     id="defs2" />
  <metadata
     id="metadata5">
    <rdf:RDF>
      <cc:Work
         rdf:about="">
        <dc:format>image/svg+xml</dc:format>
        <dc:type
           rdf:resource="http://purl.org/dc/dcmitype/StillImage" />
        <dc:title></dc:title>
      </cc:Work>
    </rdf:RDF>
  </metadata>
  <path
     id="rect4771-7"
     d="m 43.25032,1.33089 c -1.58948,0 -2.86907,1.27958 -2.86907,2.86907 v 19.26187 c 0,1.58949 1.27959,2.86909 2.86907,2.86909 h 10.74302 c 0.57333,-4.77557 2.15232,-14.34951 2.15232,-14.34951 h -1.77354 l 0.43512,-2.93574 1.7756,-0.006 c 0,0 0.15483,-0.84865 0.27802,-1.8438 0.95988,-3.56338 5.01431,-3.09311 6.95772,-2.94971 l -0.4408,2.94971 c -3.28828,0 -3.44715,-0.25564 -3.75998,1.83761 h 3.48506 l -0.44029,2.94762 h -3.48506 l -2.1549,14.34952 h 5.29477 c 1.58948,0 2.86907,-1.27961 2.86907,-2.86909 V 4.19965 c 0,-1.58949 -1.27959,-2.86906 -2.86907,-2.86906 h -6.8492 L 52.45079,21.51954 H 49.421 c -1.10586,0 -2.38628,-1.3e-4 -3.35535,-0.0997 C 39.30716,20.7256 40.07569,7.95443 51.28704,9.03353 51.31534,8.85568 52.25019,2.83487 52.43839,1.33064 Z m 5.72937,10.50581 c -0.57209,-0.003 -1.15868,0.0443 -1.57097,0.19947 -3.50313,1.31893 -3.89121,7.85768 2.34663,6.88952 0.33368,-2.45531 0.69531,-4.74078 1.05627,-6.94894 -0.0636,-0.01 -0.91351,-0.13594 -1.83193,-0.14005 z"
     style="opacity:1;fill:#ffffff;fill-opacity:1;stroke:none;stroke-width:1.62531209;stroke-miterlimit:4;stroke-dasharray:none;stroke-opacity:1" />
  <g
     style="fill:#ffffff;fill-opacity:1"
     id="g1026">
    <path
       id="rect4609-2-9"
       style="opacity:1;fill:#ffffff;fill-opacity:1;stroke:none;stroke-width:1.48196816;stroke-miterlimit:4;stroke-dasharray:none;stroke-opacity:1"
       d="M 18.87507,11.54896 19.31381,8.2546 c 5.15552,-2.073 6.82692,-0.13737 6.45045,2.64983 l -1.22757,9.03039 h -3.23238 c 0.45135,-3.07212 0.98072,-5.58662 1.20761,-8.21439 0.24426,-2.82902 -3.47215,-0.36216 -3.63685,-0.17147 z M 16.86088,3.437 h 3.23237 L 17.62764,19.93482 H 14.39526 C 15.32159,13.62965 16.05391,8.76394 16.86088,3.437 Z" />
    <path
       id="rect4609-27-2"
       style="opacity:1;fill:#ffffff;fill-opacity:1;stroke:none;stroke-width:1.48196816;stroke-miterlimit:4;stroke-dasharray:none;stroke-opacity:1"
       d="M 6.67403,10.42428 7.08596,7.66797 c 1.10587,-0.0147 2.53129,-0.0483 3.38823,0.1306 5.91544,1.23527 4.48973,12.97339 -5.22152,12.13625 L 5.649,17.2829 c 0,0 2.40068,0.13047 3.39859,-0.76745 2.2866,-1.89452 2.71477,-6.69995 -2.37356,-6.09117 z M 3.85359,7.66797 H 7.08596 L 4.62034,24.16579 H 1.38797 C 2.3143,17.86062 3.04662,12.99491 3.85359,7.66797 Z" />
    <path
       id="rect4609-27-0-0"
       style="opacity:1;fill:#ffffff;fill-opacity:1;stroke:none;stroke-width:1.48196816;stroke-miterlimit:4;stroke-dasharray:none;stroke-opacity:1"
       d="m 30.84878,10.42428 0.41193,-2.75631 c 1.10587,0.022 2.53129,-0.0483 3.38823,0.1306 5.91544,1.23527 4.48973,12.97339 -5.22152,12.13625 l 0.39633,-2.65192 c 0,0 2.2226,0.21768 3.39859,-0.76745 2.2866,-1.89452 2.71477,-6.69995 -2.37356,-6.09117 z M 28.02834,7.66797 h 3.23237 L 28.7951,24.16579 h -3.23238 c 0.92633,-6.30517 1.65865,-11.17088 2.46562,-16.49782 z" />
  </g>
  <style
     type="text/css"
     id="style5232">
	.st0{fill:url(#SVGID_1_);}
	.st1{fill:#6181B6;}
	.st2{fill:#FFFFFF;}
</style>
</svg>
