<?xml version="1.0" encoding="UTF-8" standalone="no"?>
<svg
   xmlns:dc="http://purl.org/dc/elements/1.1/"
   xmlns:cc="http://creativecommons.org/ns#"
   xmlns:rdf="http://www.w3.org/1999/02/22-rdf-syntax-ns#"
   xmlns:svg="http://www.w3.org/2000/svg"
   xmlns="http://www.w3.org/2000/svg"
   width="28.537062mm"
   height="16.585539mm"
   viewBox="0 0 39.322363 22.85388"
   version="1.1"
   id="svg8">
  <defs
     id="defs2" />
  <metadata
     id="metadata5">
    <rdf:RDF>
      <cc:Work
         rdf:about="">
        <dc:format>image/svg+xml</dc:format>
        <dc:type
           rdf:resource="http://purl.org/dc/dcmitype/StillImage" />
        <dc:title></dc:title>
      </cc:Work>
    </rdf:RDF>
  </metadata>
  <path
     id="rect5082"
     d="M 14.66685,7.05862 15.71601,0 h 5.69095 l -0.64979,4.344562 c 1.93219,-0.822708 5.39898,-0.94304 6.01492,1.684883 L 27.07874,4.0546 33.08167,4.0675 c 8.44526,0.1004004 7.474737,10.52739 2.09643,13.395353 -1.26497,0.67454 -3.029149,1.095486 -4.52264,1.166055 l -0.63131,4.22419 -5.75477,-4.8e-5 0.64441,-4.216735 -4.72553,-0.0075 1.34518,-9.0197643 c 0.204969,-1.268227 -1.598332,-0.282854 -1.667276,0.178457 L 18.542208,18.646308 12.932,18.628818 13.40315,15.476287 C 11.3742,18.218624 8.8469,18.605645 6.34583,18.604256 L 5.71251,22.853879 0,22.853005 2.80945,4.054535 c 1.6791,0 7.3106,-0.149668 8.88622,0.259077 0.62361,0.161775 2.18157,0.418133 2.97122,2.744978 z"
     style="opacity:1;fill:#ffffff;fill-opacity:1;stroke:none;stroke-width:1.4331404;stroke-miterlimit:4;stroke-dasharray:none;stroke-opacity:1" />
  <g
     style="fill:#425d97;fill-opacity:1"
     id="g950">
    <path
       id="rect4609-2-9"
       style="opacity:1;fill:#425d97;fill-opacity:1;stroke:none;stroke-width:1.48196816;stroke-miterlimit:4;stroke-dasharray:none;stroke-opacity:1"
       d="m 18.87507,9.0993367 0.43874,-3.29436 c 5.15552,-2.073 6.82692,-0.13737 6.45045,2.64983 l -1.22757,9.0303903 h -3.23238 c 0.45135,-3.07212 0.98072,-5.58662 1.20761,-8.2143903 0.24426,-2.82902 -3.47215,-0.36216 -3.63685,-0.17147 z m -2.01419,-8.11196 h 3.23237 L 17.62764,17.485197 h -3.23238 c 0.92633,-6.30517 1.65865,-11.1708803 2.46562,-16.4978203 z" />
    <path
       id="rect4609-27-2"
       style="opacity:1;fill:#425d97;fill-opacity:1;stroke:none;stroke-width:1.48196816;stroke-miterlimit:4;stroke-dasharray:none;stroke-opacity:1"
       d="m 6.67403,7.9746567 0.41193,-2.75631 c 1.10587,-0.0147 2.53129,-0.0483 3.38823,0.1306 5.91544,1.23527 4.48973,12.9733903 -5.22152,12.1362503 L 5.649,14.833277 c 0,0 2.40068,0.13047 3.39859,-0.76745 2.2866,-1.89452 2.71477,-6.6999503 -2.37356,-6.0911703 z M 3.85359,5.2183467 H 7.08596 L 4.62034,21.716167 H 1.38797 C 2.3143,15.410997 3.04662,10.545287 3.85359,5.2183467 Z" />
    <path
       id="rect4609-27-0-0"
       style="opacity:1;fill:#425d97;fill-opacity:1;stroke:none;stroke-width:1.48196816;stroke-miterlimit:4;stroke-dasharray:none;stroke-opacity:1"
       d="m 30.84878,7.9746567 0.41193,-2.75631 c 1.10587,0.022 2.53129,-0.0483 3.38823,0.1306 5.91544,1.23527 4.48973,12.9733903 -5.22152,12.1362503 l 0.39633,-2.65192 c 0,0 2.2226,0.21768 3.39859,-0.76745 2.2866,-1.89452 2.71477,-6.6999503 -2.37356,-6.0911703 z m -2.82044,-2.75631 h 3.23237 L 28.7951,21.716167 h -3.23238 c 0.92633,-6.30517 1.65865,-11.17088 2.46562,-16.4978203 z" />
  </g>
  <style
     type="text/css"
     id="style5232">
	.st0{fill:url(#SVGID_1_);}
	.st1{fill:#6181B6;}
	.st2{fill:#FFFFFF;}
</style>
  <style
     type="text/css"
     id="style5232-9">
	.st0{fill:url(#SVGID_1_);}
	.st1{fill:#6181B6;}
	.st2{fill:#FFFFFF;}
</style>
</svg>
